<svg width="37" height="22" viewBox="0 0 37 22" fill="none" xmlns="http://www.w3.org/2000/svg">
    <path d="M18.5 0C11.4308 0 5.02 3.85793 0.289506 10.1242C-0.096502 10.6376 -0.096502 11.3548 0.289506 11.8682C5.02 18.1421 11.4308 22 18.5 22C25.5692 22 31.98 18.1421 36.7105 11.8758C37.0965 11.3624 37.0965 10.6452 36.7105 10.1318C31.98 3.85793 25.5692 0 18.5 0ZM19.0071 18.7461C14.3145 19.0405 10.4392 15.1826 10.7344 10.4942C10.9766 6.62869 14.1177 3.49554 17.9929 3.25395C22.6855 2.95951 26.5608 6.81743 26.2656 11.5058C26.0158 15.3638 22.8748 18.4969 19.0071 18.7461ZM18.7725 15.1675C16.2445 15.326 14.1555 13.2498 14.322 10.7282C14.4507 8.64447 16.1461 6.96088 18.2351 6.82498C20.7631 6.66644 22.8521 8.74262 22.6855 11.2642C22.5493 13.3555 20.8539 15.0391 18.7725 15.1675Z" fill="#99A2AD"/>
</svg>
