<svg width="775" height="212" viewBox="0 0 775 212" fill="none" xmlns="http://www.w3.org/2000/svg">
    <path d="M55.59 35.862C56.406 38.65 57.29 41.812 58.242 45.348C59.262 48.816 60.316 52.42 61.404 56.16C62.56 59.9 63.716 63.64 64.872 67.38C66.028 71.12 67.15 74.588 68.238 77.784C69.122 74.316 70.006 70.542 70.89 66.462C71.842 62.382 72.726 58.166 73.542 53.814C74.358 49.462 75.14 45.144 75.888 40.86C76.704 36.508 77.452 32.326 78.132 28.314H94.656C92.276 40.146 89.522 52.148 86.394 64.32C83.334 76.492 80.002 88.052 76.398 99H61.812C59.432 92.472 57.12 85.638 54.876 78.498C52.632 71.29 50.422 64.082 48.246 56.874C46.07 64.082 43.894 71.29 41.718 78.498C39.542 85.638 37.264 92.472 34.884 99H20.298C16.694 88.052 13.328 76.492 10.2 64.32C7.14 52.148 4.42 40.146 2.04 28.314H19.278C19.958 32.326 20.706 36.508 21.522 40.86C22.338 45.144 23.188 49.462 24.072 53.814C24.956 58.166 25.84 62.382 26.724 66.462C27.676 70.542 28.628 74.316 29.58 77.784C30.804 74.452 31.994 70.916 33.15 67.176C34.306 63.436 35.428 59.696 36.516 55.956C37.604 52.216 38.59 48.612 39.474 45.144C40.426 41.676 41.276 38.582 42.024 35.862H55.59ZM97.924 72.582C97.924 67.822 98.638 63.674 100.066 60.138C101.562 56.534 103.5 53.542 105.88 51.162C108.26 48.782 110.98 46.98 114.04 45.756C117.168 44.532 120.364 43.92 123.628 43.92C131.244 43.92 137.262 46.266 141.682 50.958C146.102 55.582 148.312 62.416 148.312 71.46C148.312 72.344 148.278 73.33 148.21 74.418C148.142 75.438 148.074 76.356 148.006 77.172H113.53C113.87 80.3 115.332 82.782 117.916 84.618C120.5 86.454 123.968 87.372 128.32 87.372C131.108 87.372 133.828 87.134 136.48 86.658C139.2 86.114 141.41 85.468 143.11 84.72L145.15 97.062C144.334 97.47 143.246 97.878 141.886 98.286C140.526 98.694 138.996 99.034 137.296 99.306C135.664 99.646 133.896 99.918 131.992 100.122C130.088 100.326 128.184 100.428 126.28 100.428C121.452 100.428 117.236 99.714 113.632 98.286C110.096 96.858 107.138 94.92 104.758 92.472C102.446 89.956 100.712 86.998 99.556 83.598C98.468 80.198 97.924 76.526 97.924 72.582ZM133.624 66.768C133.556 65.476 133.318 64.218 132.91 62.994C132.57 61.77 131.992 60.682 131.176 59.73C130.428 58.778 129.442 57.996 128.218 57.384C127.062 56.772 125.6 56.466 123.832 56.466C122.132 56.466 120.67 56.772 119.446 57.384C118.222 57.928 117.202 58.676 116.386 59.628C115.57 60.58 114.924 61.702 114.448 62.994C114.04 64.218 113.734 65.476 113.53 66.768H133.624ZM180.542 88.392C182.038 88.392 183.466 88.358 184.826 88.29C186.186 88.222 187.274 88.12 188.09 87.984V76.458C187.478 76.322 186.56 76.186 185.336 76.05C184.112 75.914 182.99 75.846 181.97 75.846C180.542 75.846 179.182 75.948 177.89 76.152C176.666 76.288 175.578 76.594 174.626 77.07C173.674 77.546 172.926 78.192 172.382 79.008C171.838 79.824 171.566 80.844 171.566 82.068C171.566 84.448 172.348 86.114 173.912 87.066C175.544 87.95 177.754 88.392 180.542 88.392ZM179.318 43.92C183.806 43.92 187.546 44.43 190.538 45.45C193.53 46.47 195.91 47.932 197.678 49.836C199.514 51.74 200.806 54.052 201.554 56.772C202.302 59.492 202.676 62.518 202.676 65.85V97.47C200.5 97.946 197.474 98.49 193.598 99.102C189.722 99.782 185.03 100.122 179.522 100.122C176.054 100.122 172.892 99.816 170.036 99.204C167.248 98.592 164.834 97.606 162.794 96.246C160.754 94.818 159.19 92.982 158.102 90.738C157.014 88.494 156.47 85.74 156.47 82.476C156.47 79.348 157.082 76.696 158.306 74.52C159.598 72.344 161.298 70.61 163.406 69.318C165.514 68.026 167.928 67.108 170.648 66.564C173.368 65.952 176.19 65.646 179.114 65.646C181.086 65.646 182.82 65.748 184.316 65.952C185.88 66.088 187.138 66.292 188.09 66.564V65.136C188.09 62.552 187.308 60.478 185.744 58.914C184.18 57.35 181.46 56.568 177.584 56.568C175 56.568 172.45 56.772 169.934 57.18C167.418 57.52 165.242 58.03 163.406 58.71L161.468 46.47C162.352 46.198 163.44 45.926 164.732 45.654C166.092 45.314 167.554 45.042 169.118 44.838C170.682 44.566 172.314 44.362 174.014 44.226C175.782 44.022 177.55 43.92 179.318 43.92ZM215.909 31.986L231.107 29.538V45.348H249.365V57.996H231.107V76.866C231.107 80.062 231.651 82.612 232.739 84.516C233.895 86.42 236.173 87.372 239.573 87.372C241.205 87.372 242.871 87.236 244.571 86.964C246.339 86.624 247.937 86.182 249.365 85.638L251.507 97.47C249.671 98.218 247.631 98.864 245.387 99.408C243.143 99.952 240.389 100.224 237.125 100.224C232.977 100.224 229.543 99.68 226.823 98.592C224.103 97.436 221.927 95.872 220.295 93.9C218.663 91.86 217.507 89.412 216.827 86.556C216.215 83.7 215.909 80.538 215.909 77.07V31.986ZM261.742 99V22.296L276.94 19.848V45.552C277.96 45.212 279.252 44.906 280.816 44.634C282.448 44.294 284.012 44.124 285.508 44.124C289.86 44.124 293.464 44.736 296.32 45.96C299.244 47.116 301.556 48.782 303.256 50.958C305.024 53.134 306.248 55.718 306.928 58.71C307.676 61.702 308.05 65.034 308.05 68.706V99H292.852V70.542C292.852 65.646 292.206 62.178 290.914 60.138C289.69 58.098 287.378 57.078 283.978 57.078C282.618 57.078 281.326 57.214 280.102 57.486C278.946 57.69 277.892 57.928 276.94 58.2V99H261.742ZM319.256 72.582C319.256 67.822 319.97 63.674 321.398 60.138C322.894 56.534 324.832 53.542 327.212 51.162C329.592 48.782 332.312 46.98 335.372 45.756C338.5 44.532 341.696 43.92 344.96 43.92C352.576 43.92 358.594 46.266 363.014 50.958C367.434 55.582 369.644 62.416 369.644 71.46C369.644 72.344 369.61 73.33 369.542 74.418C369.474 75.438 369.406 76.356 369.338 77.172H334.862C335.202 80.3 336.664 82.782 339.248 84.618C341.832 86.454 345.3 87.372 349.652 87.372C352.44 87.372 355.16 87.134 357.812 86.658C360.532 86.114 362.742 85.468 364.442 84.72L366.482 97.062C365.666 97.47 364.578 97.878 363.218 98.286C361.858 98.694 360.328 99.034 358.628 99.306C356.996 99.646 355.228 99.918 353.324 100.122C351.42 100.326 349.516 100.428 347.612 100.428C342.784 100.428 338.568 99.714 334.964 98.286C331.428 96.858 328.47 94.92 326.09 92.472C323.778 89.956 322.044 86.998 320.888 83.598C319.8 80.198 319.256 76.526 319.256 72.582ZM354.956 66.768C354.888 65.476 354.65 64.218 354.242 62.994C353.902 61.77 353.324 60.682 352.508 59.73C351.76 58.778 350.774 57.996 349.55 57.384C348.394 56.772 346.932 56.466 345.164 56.466C343.464 56.466 342.002 56.772 340.778 57.384C339.554 57.928 338.534 58.676 337.718 59.628C336.902 60.58 336.256 61.702 335.78 62.994C335.372 64.218 335.066 65.476 334.862 66.768H354.956ZM413.706 58.812C412.346 58.472 410.748 58.132 408.912 57.792C407.076 57.384 405.104 57.18 402.996 57.18C402.044 57.18 400.888 57.282 399.528 57.486C398.236 57.622 397.25 57.792 396.57 57.996V99H381.372V48.204C384.092 47.252 387.288 46.368 390.96 45.552C394.7 44.668 398.848 44.226 403.404 44.226C404.22 44.226 405.206 44.294 406.362 44.43C407.518 44.498 408.674 44.634 409.83 44.838C410.986 44.974 412.142 45.178 413.298 45.45C414.454 45.654 415.44 45.926 416.256 46.266L413.706 58.812Z" fill="white"/>
    <path d="M399.396 109.848C402.252 109.848 404.87 110.154 407.25 110.766C409.63 111.31 411.466 111.854 412.758 112.398L409.8 124.536C408.44 123.924 406.944 123.482 405.312 123.21C403.748 122.87 402.286 122.7 400.926 122.7C399.09 122.7 397.526 122.972 396.234 123.516C395.01 123.992 394.024 124.672 393.276 125.556C392.596 126.44 392.086 127.494 391.746 128.718C391.474 129.942 391.338 131.268 391.338 132.696V135.348H410.106V147.996H391.338V189H376.14V132.492C376.14 125.556 378.078 120.048 381.954 115.968C385.898 111.888 391.712 109.848 399.396 109.848ZM468.558 162.072C468.558 166.288 467.946 170.164 466.722 173.7C465.498 177.168 463.73 180.16 461.418 182.676C459.106 185.124 456.318 187.028 453.054 188.388C449.858 189.748 446.254 190.428 442.242 190.428C438.298 190.428 434.694 189.748 431.43 188.388C428.234 187.028 425.48 185.124 423.168 182.676C420.856 180.16 419.054 177.168 417.762 173.7C416.47 170.164 415.824 166.288 415.824 162.072C415.824 157.856 416.47 154.014 417.762 150.546C419.122 147.078 420.958 144.12 423.27 141.672C425.65 139.224 428.438 137.32 431.634 135.96C434.898 134.6 438.434 133.92 442.242 133.92C446.118 133.92 449.654 134.6 452.85 135.96C456.114 137.32 458.902 139.224 461.214 141.672C463.526 144.12 465.328 147.078 466.62 150.546C467.912 154.014 468.558 157.856 468.558 162.072ZM453.054 162.072C453.054 157.38 452.102 153.708 450.198 151.056C448.362 148.336 445.71 146.976 442.242 146.976C438.774 146.976 436.088 148.336 434.184 151.056C432.28 153.708 431.328 157.38 431.328 162.072C431.328 166.764 432.28 170.504 434.184 173.292C436.088 176.012 438.774 177.372 442.242 177.372C445.71 177.372 448.362 176.012 450.198 173.292C452.102 170.504 453.054 166.764 453.054 162.072ZM512.665 148.812C511.305 148.472 509.707 148.132 507.871 147.792C506.035 147.384 504.063 147.18 501.955 147.18C501.003 147.18 499.847 147.282 498.487 147.486C497.195 147.622 496.209 147.792 495.529 147.996V189H480.331V138.204C483.051 137.252 486.247 136.368 489.919 135.552C493.659 134.668 497.807 134.226 502.363 134.226C503.179 134.226 504.165 134.294 505.321 134.43C506.477 134.498 507.633 134.634 508.789 134.838C509.945 134.974 511.101 135.178 512.257 135.45C513.413 135.654 514.399 135.926 515.215 136.266L512.665 148.812ZM519.817 162.582C519.817 157.822 520.531 153.674 521.959 150.138C523.455 146.534 525.393 143.542 527.773 141.162C530.153 138.782 532.873 136.98 535.933 135.756C539.061 134.532 542.257 133.92 545.521 133.92C553.137 133.92 559.155 136.266 563.575 140.958C567.995 145.582 570.205 152.416 570.205 161.46C570.205 162.344 570.171 163.33 570.103 164.418C570.035 165.438 569.967 166.356 569.899 167.172H535.423C535.763 170.3 537.225 172.782 539.809 174.618C542.393 176.454 545.861 177.372 550.213 177.372C553.001 177.372 555.721 177.134 558.373 176.658C561.093 176.114 563.303 175.468 565.003 174.72L567.043 187.062C566.227 187.47 565.139 187.878 563.779 188.286C562.419 188.694 560.889 189.034 559.189 189.306C557.557 189.646 555.789 189.918 553.885 190.122C551.981 190.326 550.077 190.428 548.173 190.428C543.345 190.428 539.129 189.714 535.525 188.286C531.989 186.858 529.031 184.92 526.651 182.472C524.339 179.956 522.605 176.998 521.449 173.598C520.361 170.198 519.817 166.526 519.817 162.582ZM555.517 156.768C555.449 155.476 555.211 154.218 554.803 152.994C554.463 151.77 553.885 150.682 553.069 149.73C552.321 148.778 551.335 147.996 550.111 147.384C548.955 146.772 547.493 146.466 545.725 146.466C544.025 146.466 542.563 146.772 541.339 147.384C540.115 147.928 539.095 148.676 538.279 149.628C537.463 150.58 536.817 151.702 536.341 152.994C535.933 154.218 535.627 155.476 535.423 156.768H555.517ZM579.383 162.174C579.383 158.298 579.995 154.66 581.219 151.26C582.511 147.792 584.347 144.8 586.727 142.284C589.107 139.7 591.997 137.66 595.397 136.164C598.797 134.668 602.673 133.92 607.025 133.92C609.881 133.92 612.499 134.192 614.879 134.736C617.259 135.212 619.571 135.926 621.815 136.878L618.653 149.016C617.225 148.472 615.661 147.996 613.961 147.588C612.261 147.18 610.357 146.976 608.249 146.976C603.761 146.976 600.395 148.37 598.151 151.158C595.975 153.946 594.887 157.618 594.887 162.174C594.887 167.002 595.907 170.742 597.947 173.394C600.055 176.046 603.693 177.372 608.861 177.372C610.697 177.372 612.669 177.202 614.777 176.862C616.885 176.522 618.823 175.978 620.591 175.23L622.733 187.674C620.965 188.422 618.755 189.068 616.103 189.612C613.451 190.156 610.527 190.428 607.331 190.428C602.435 190.428 598.219 189.714 594.683 188.286C591.147 186.79 588.223 184.784 585.911 182.268C583.667 179.752 582.001 176.794 580.913 173.394C579.893 169.926 579.383 166.186 579.383 162.174ZM650.845 178.392C652.341 178.392 653.769 178.358 655.129 178.29C656.489 178.222 657.577 178.12 658.393 177.984V166.458C657.781 166.322 656.863 166.186 655.639 166.05C654.415 165.914 653.293 165.846 652.273 165.846C650.845 165.846 649.485 165.948 648.193 166.152C646.969 166.288 645.881 166.594 644.929 167.07C643.977 167.546 643.229 168.192 642.685 169.008C642.141 169.824 641.869 170.844 641.869 172.068C641.869 174.448 642.651 176.114 644.215 177.066C645.847 177.95 648.057 178.392 650.845 178.392ZM649.621 133.92C654.109 133.92 657.849 134.43 660.841 135.45C663.833 136.47 666.213 137.932 667.981 139.836C669.817 141.74 671.109 144.052 671.857 146.772C672.605 149.492 672.979 152.518 672.979 155.85V187.47C670.803 187.946 667.777 188.49 663.901 189.102C660.025 189.782 655.333 190.122 649.825 190.122C646.357 190.122 643.195 189.816 640.339 189.204C637.551 188.592 635.137 187.606 633.097 186.246C631.057 184.818 629.493 182.982 628.405 180.738C627.317 178.494 626.773 175.74 626.773 172.476C626.773 169.348 627.385 166.696 628.609 164.52C629.901 162.344 631.601 160.61 633.709 159.318C635.817 158.026 638.231 157.108 640.951 156.564C643.671 155.952 646.493 155.646 649.417 155.646C651.389 155.646 653.123 155.748 654.619 155.952C656.183 156.088 657.441 156.292 658.393 156.564V155.136C658.393 152.552 657.611 150.478 656.047 148.914C654.483 147.35 651.763 146.568 647.887 146.568C645.303 146.568 642.753 146.772 640.237 147.18C637.721 147.52 635.545 148.03 633.709 148.71L631.771 136.47C632.655 136.198 633.743 135.926 635.035 135.654C636.395 135.314 637.857 135.042 639.421 134.838C640.985 134.566 642.617 134.362 644.317 134.226C646.085 134.022 647.853 133.92 649.621 133.92ZM702.124 178.086C704.912 178.086 706.884 177.814 708.04 177.27C709.196 176.726 709.774 175.672 709.774 174.108C709.774 172.884 709.026 171.83 707.53 170.946C706.034 169.994 703.756 168.94 700.696 167.784C698.316 166.9 696.14 165.982 694.168 165.03C692.264 164.078 690.632 162.956 689.272 161.664C687.912 160.304 686.858 158.706 686.11 156.87C685.362 155.034 684.988 152.824 684.988 150.24C684.988 145.208 686.858 141.23 690.598 138.306C694.338 135.382 699.472 133.92 706 133.92C709.264 133.92 712.392 134.226 715.384 134.838C718.376 135.382 720.756 135.994 722.524 136.674L719.872 148.506C718.104 147.894 716.166 147.35 714.058 146.874C712.018 146.398 709.706 146.16 707.122 146.16C702.362 146.16 699.982 147.486 699.982 150.138C699.982 150.75 700.084 151.294 700.288 151.77C700.492 152.246 700.9 152.722 701.512 153.198C702.124 153.606 702.94 154.082 703.96 154.626C705.048 155.102 706.408 155.646 708.04 156.258C711.372 157.482 714.126 158.706 716.302 159.93C718.478 161.086 720.178 162.378 721.402 163.806C722.694 165.166 723.578 166.696 724.054 168.396C724.598 170.096 724.87 172.068 724.87 174.312C724.87 179.616 722.864 183.628 718.852 186.348C714.908 189.068 709.298 190.428 702.022 190.428C697.262 190.428 693.284 190.02 690.088 189.204C686.96 188.388 684.784 187.708 683.56 187.164L686.11 174.822C688.694 175.842 691.346 176.658 694.066 177.27C696.786 177.814 699.472 178.086 702.124 178.086ZM735.718 121.986L750.916 119.538V135.348H769.174V147.996H750.916V166.866C750.916 170.062 751.46 172.612 752.548 174.516C753.704 176.42 755.982 177.372 759.382 177.372C761.014 177.372 762.68 177.236 764.38 176.964C766.148 176.624 767.746 176.182 769.174 175.638L771.316 187.47C769.48 188.218 767.44 188.864 765.196 189.408C762.952 189.952 760.198 190.224 756.934 190.224C752.786 190.224 749.352 189.68 746.632 188.592C743.912 187.436 741.736 185.872 740.104 183.9C738.472 181.86 737.316 179.412 736.636 176.556C736.024 173.7 735.718 170.538 735.718 167.07V121.986Z" fill="white"/>
</svg>
